<svg xmlns="http://www.w3.org/2000/svg" xmlns:xlink="http://www.w3.org/1999/xlink" viewBox="0 0 1111 825"><defs><style>.cls-1{isolation:isolate;}.cls-2,.cls-6,.cls-9{fill:#fff;}.cls-3,.cls-8{fill:none;}.cls-3{stroke:#35404e;}.cls-3,.cls-6,.cls-8{stroke-width:2px;}.cls-4{fill:#35404e;}.cls-10,.cls-5{fill:#f5f1ea;}.cls-6,.cls-7,.cls-8,.cls-9{stroke:#3e3e3e;}.cls-7{fill:#3fa2f7;}.cls-10,.cls-7,.cls-9{stroke-miterlimit:10;}.cls-10{stroke:#000;stroke-width:0.84px;}.cls-11{fill:#28c6c7;}.cls-12,.cls-13{opacity:0.6;mix-blend-mode:multiply;}.cls-12{fill:url(#radial-gradient);}.cls-13{fill:url(#radial-gradient-2);}</style><radialGradient id="radial-gradient" cx="233.76" cy="33467.94" r="18.9" gradientTransform="translate(-67.89 -5824.27) scale(1 0.19)" gradientUnits="userSpaceOnUse"><stop offset="0" stop-color="#fff"/><stop offset="0" stop-opacity="0.8"/><stop offset="0.09" stop-color="#2a2a2a" stop-opacity="0.83"/><stop offset="0.23" stop-color="#626262" stop-opacity="0.88"/><stop offset="0.37" stop-color="#929292" stop-opacity="0.91"/><stop offset="0.5" stop-color="#b9b9b9" stop-opacity="0.95"/><stop offset="0.63" stop-color="#d8d8d8" stop-opacity="0.97"/><stop offset="0.76" stop-color="#ededed" stop-opacity="0.99"/><stop offset="0.89" stop-color="#fbfbfb"/><stop offset="1" stop-color="#fff"/></radialGradient><radialGradient id="radial-gradient-2" cx="690.3" cy="32674.87" r="26.39" xlink:href="#radial-gradient"/></defs><title>ipad-iphone2</title><g class="cls-1"><g id="Layer_1" data-name="Layer 1"><g id="Components"><g id="Headers"><g id="Header-_14" data-name="Header-#14"><g id="Image"><g id="Group"><g id="Images-_-Browser-Frame" data-name="Images-/-Browser-Frame"><g id="Browser"><g id="Rectangle"><path id="path-1" class="cls-2" d="M234.89,34.39a4,4,0,0,1,4-4h936a4,4,0,0,1,4,4v648h-944Z" transform="translate(-67.89 -30.39)"/><path class="cls-3" d="M235.89,681.39h942v-647a3,3,0,0,0-3-3h-936a3,3,0,0,0-3,3Z" transform="translate(-67.89 -30.39)"/></g><path id="Rectangle-2" data-name="Rectangle" class="cls-4" d="M234.89,60.39a1,1,0,0,1,1-1h942a1,1,0,0,1,1,1v1h-944Z" transform="translate(-67.89 -30.39)"/><g id="Circles"><circle id="Oval" class="cls-4" cx="186" cy="16" r="4"/><circle id="Oval-2" data-name="Oval" class="cls-4" cx="200" cy="16" r="4"/><circle id="Oval-3" data-name="Oval" class="cls-4" cx="214" cy="16" r="4"/></g></g><g id="Screen"><g id="Mask"><rect id="path-2" class="cls-5" x="169" y="30" width="940" height="620"/></g></g></g><g id="Images-_-iPhone-_-iPhone-330px" data-name="Images-/-iPhone-/-iPhone-330px"><g id="iPhone"><path id="Shape" class="cls-6" d="M396.89,818.39a35.91,35.91,0,0,1-36,36h-251c-20.45,0-37-16.06-37-36v-598c0-19.82,16.55-36,37-36h251a36,36,0,0,1,36,36v598Z" transform="translate(-67.89 -30.39)"/><polygon id="Shape-2" data-name="Shape" class="cls-7" points="317 229 315.99 229 21.01 229 20 229 20 230 20 745 20 746 21.01 746 315.99 746 317 746 317 745 317 230 317 229"/><path id="Shape-3" data-name="Shape" class="cls-8" d="M259.89,226.39a2,2,0,0,1-2,2h-45a2,2,0,0,1,0-4h45a2,2,0,0,1,2,2Z" transform="translate(-67.89 -30.39)"/><path id="Oval-4" data-name="Oval" class="cls-8" d="M257.89,812.89a23.5,23.5,0,1,1-23.5-23.5,23.5,23.5,0,0,1,23.5,23.5Z" transform="translate(-67.89 -30.39)"/><path id="Oval-5" data-name="Oval" class="cls-8" d="M239.89,206.39a5,5,0,1,1-5-5,5,5,0,0,1,5,5Z" transform="translate(-67.89 -30.39)"/><path id="Oval-6" data-name="Oval" class="cls-8" d="M187.89,226.39a5,5,0,1,1-5-5,5,5,0,0,1,5,5Z" transform="translate(-67.89 -30.39)"/><path id="Shape-4" data-name="Shape" class="cls-8" d="M399.89,329.39h-3v47h3a.9.9,0,0,0,1-1v-45a.9.9,0,0,0-1-1Z" transform="translate(-67.89 -30.39)"/><path id="Shape-5" data-name="Shape" class="cls-8" d="M72.89,268.39h-1a1.14,1.14,0,0,0-1,1v20a1.14,1.14,0,0,0,1,1h1v-22Z" transform="translate(-67.89 -30.39)"/><path id="Shape-6" data-name="Shape" class="cls-8" d="M69.56,391.39c-.36,0-.67.44-.67,1v45c0,.56.31,1,.67,1h3.33v-47Z" transform="translate(-67.89 -30.39)"/><path id="Shape-7" data-name="Shape" class="cls-8" d="M69.56,329.39c-.36,0-.67.44-.67,1v45c0,.56.31,1,.67,1h3.33v-47Z" transform="translate(-67.89 -30.39)"/></g><g id="Screen-2" data-name="Screen"><g id="Mask-2" data-name="Mask"><rect id="path-4" class="cls-9" x="22" y="231" width="293" height="513"/></g></g></g></g><path class="cls-10" d="M380,776.51H93.21a2.91,2.91,0,0,1-2.91-2.91V263.3a2.91,2.91,0,0,1,2.91-2.92H380a2.92,2.92,0,0,1,2.92,2.92V773.6A2.91,2.91,0,0,1,380,776.51Z" transform="translate(-67.89 -30.39)"/><path class="cls-4" d="M148.16,505.21h5.39v9.36h9.58v-9.36h5.39v23.92h-5.39v-9.37h-9.58v9.37h-5.39Z" transform="translate(-67.89 -30.39)"/><path class="cls-4" d="M171.78,520.71a8.38,8.38,0,0,1,8.7-8.7c4.28,0,8.12,2.8,8.12,8.12a11,11,0,0,1-.1,1.49H176.67a3.52,3.52,0,0,0,3.67,3.13,3.87,3.87,0,0,0,3.61-2.12l4,2.73a8.87,8.87,0,0,1-7.61,4A8.58,8.58,0,0,1,171.78,520.71Zm4.93-2.06h6.87c-.27-1.79-1.75-2.56-3.4-2.56A3.36,3.36,0,0,0,176.71,518.65Z" transform="translate(-67.89 -30.39)"/><path class="cls-4" d="M202.52,528.15a5.87,5.87,0,0,1-3.71,1.25c-5,0-8.15-4.08-8.15-8.69s3.16-8.7,8.15-8.7a5.89,5.89,0,0,1,3.71,1.28v-1h5.09v16.85h-5.09Zm0-4.78v-5.29a3.44,3.44,0,0,0-2.87-1.42,4,4,0,0,0,0,8.09A3.4,3.4,0,0,0,202.52,523.37Z" transform="translate(-67.89 -30.39)"/><path class="cls-4" d="M211.58,505.21h5.09v23.92h-5.09Z" transform="translate(-67.89 -30.39)"/><path class="cls-4" d="M218.25,512.28h3.31v-2.53l5.08-2.52v5H232l-1.11,4.45h-4.22v5.76c0,1.42.58,2,2,2h2.76v4.65h-4.65a4.8,4.8,0,0,1-5.15-5.19v-7.21h-2.19Z" transform="translate(-67.89 -30.39)"/><path class="cls-4" d="M234.53,505.21h5.09v8.12a6,6,0,0,1,3.87-1.32c4.75,0,7.35,3.17,7.35,7.72v9.4h-5.09v-8.49c0-2.26-.88-4-3.1-4a4.3,4.3,0,0,0-3,1.45v11h-5.09Z" transform="translate(-67.89 -30.39)"/><path class="cls-4" d="M254.92,505.21h9a7.13,7.13,0,0,1,7.11,7.11,5.69,5.69,0,0,1-1.68,4.11,6.16,6.16,0,0,1,3.37,5.59,7.14,7.14,0,0,1-7.25,7.11H254.92Zm8.39,9.67a2.38,2.38,0,1,0,0-4.75h-3v4.75Zm1.65,9.3a2.38,2.38,0,1,0,0-4.75h-4.65v4.75Z" transform="translate(-67.89 -30.39)"/><path class="cls-4" d="M286.52,528.15a5.82,5.82,0,0,1-3.7,1.25c-5,0-8.16-4.08-8.16-8.69s3.17-8.7,8.16-8.7a5.85,5.85,0,0,1,3.7,1.28v-1h5.09v16.85h-5.09Zm0-4.78v-5.29a3.4,3.4,0,0,0-2.86-1.42,4,4,0,0,0,0,8.09A3.37,3.37,0,0,0,286.52,523.37Z" transform="translate(-67.89 -30.39)"/><path class="cls-4" d="M295.59,512.28h5.09v1.05a6,6,0,0,1,3.87-1.32c4.75,0,7.35,3.17,7.35,7.72v9.4h-5.09v-8.49c0-2.26-.88-4-3.1-4a4.3,4.3,0,0,0-3,1.45v11h-5.09Z" transform="translate(-67.89 -30.39)"/><path class="cls-4" d="M315.71,505.21h5.08V520l5.5-7.69h5.86l-5.73,8,6.61,8.86h-6l-6.24-8.39v8.39h-5.08Z" transform="translate(-67.89 -30.39)"/><path class="cls-11" d="M245.34,430.5a14.67,14.67,0,0,0-13.35,8,13.53,13.53,0,0,0-9.81-4,17,17,0,0,0-14.43,8.07,14.14,14.14,0,0,0-2.54,8.11c0,.1,0,.2,0,.3s0,.32,0,.49v.24h0c0,26.14,28.46,37.84,28.46,37.84s28.45-10.68,28.45-37.84h.15v-3.94A17,17,0,0,0,245.34,430.5Zm-17.05,29.59H217v-7.16a5.74,5.74,0,0,1,5.71-5.95,5.68,5.68,0,0,1,5.63,5.95Zm22.19,0H239.14V449a5.74,5.74,0,0,1,5.71-5.95,5.67,5.67,0,0,1,5.63,5.95Z" transform="translate(-67.89 -30.39)"/><ellipse class="cls-12" cx="165.87" cy="463.57" rx="18.9" ry="3.55"/></g></g></g></g><path class="cls-4" d="M570.76,360.66h7.53v13.09h13.37V360.66h7.53v33.42h-7.53V381H578.29v13.08h-7.53Z" transform="translate(-67.89 -30.39)"/><path class="cls-4" d="M603.75,382.31c0-6.91,4.89-12.14,12.14-12.14,6,0,11.34,3.91,11.34,11.34a14.79,14.79,0,0,1-.14,2.07H610.57A4.91,4.91,0,0,0,615.7,388a5.39,5.39,0,0,0,5-3l5.65,3.81a12.39,12.39,0,0,1-10.64,5.65A12,12,0,0,1,603.75,382.31Zm6.87-2.87h9.6c-.37-2.49-2.45-3.57-4.75-3.57A4.69,4.69,0,0,0,610.62,379.44Z" transform="translate(-67.89 -30.39)"/><path class="cls-4" d="M646.67,392.71a8.18,8.18,0,0,1-5.18,1.75c-7,0-11.39-5.7-11.39-12.15s4.43-12.14,11.39-12.14a8.21,8.21,0,0,1,5.18,1.79v-1.41h7.11v23.53h-7.11Zm0-6.68v-7.39a4.78,4.78,0,0,0-4-2c-3.39,0-5.41,2.54-5.41,5.64s2,5.65,5.41,5.65A4.75,4.75,0,0,0,646.67,386Z" transform="translate(-67.89 -30.39)"/><path class="cls-4" d="M659.33,360.66h7.1v33.42h-7.1Z" transform="translate(-67.89 -30.39)"/><path class="cls-4" d="M668.65,370.55h4.61V367l7.1-3.53v7.06h7.44l-1.55,6.21h-5.89v8.05c0,2,.8,2.77,2.73,2.77H687v6.5h-6.49c-4.42,0-7.2-2.78-7.2-7.25V376.76H670.2Z" transform="translate(-67.89 -30.39)"/><path class="cls-4" d="M691.38,360.66h7.1V372a8.44,8.44,0,0,1,5.42-1.84c6.63,0,10.25,4.43,10.25,10.78v13.13h-7.1V382.22c0-3.15-1.23-5.55-4.33-5.55a6,6,0,0,0-4.24,2v15.39h-7.1Z" transform="translate(-67.89 -30.39)"/><path class="cls-4" d="M719.85,360.66h12.56a10,10,0,0,1,9.93,9.93,7.91,7.91,0,0,1-2.35,5.75,8.58,8.58,0,0,1,4.71,7.81,10,10,0,0,1-10.12,9.93H719.85Zm11.72,13.51a3.32,3.32,0,0,0,3.48-3.29,3.35,3.35,0,0,0-3.48-3.34h-4.19v6.63Zm2.3,13a3.32,3.32,0,0,0,3.49-3.29,3.36,3.36,0,0,0-3.49-3.34h-6.49v6.63Z" transform="translate(-67.89 -30.39)"/><path class="cls-4" d="M764,392.71a8.18,8.18,0,0,1-5.17,1.75c-7,0-11.4-5.7-11.4-12.15s4.43-12.14,11.4-12.14A8.21,8.21,0,0,1,764,372v-1.41h7.11v23.53H764Zm0-6.68v-7.39a4.78,4.78,0,0,0-4-2c-3.39,0-5.41,2.54-5.41,5.64s2,5.65,5.41,5.65A4.75,4.75,0,0,0,764,386Z" transform="translate(-67.89 -30.39)"/><path class="cls-4" d="M776.65,370.55h7.11V372a8.43,8.43,0,0,1,5.41-1.84c6.64,0,10.26,4.43,10.26,10.78v13.13h-7.11V382.22c0-3.15-1.22-5.55-4.33-5.55a6,6,0,0,0-4.23,2v15.39h-7.11Z" transform="translate(-67.89 -30.39)"/><path class="cls-4" d="M804.74,360.66h7.11v20.62l7.67-10.73h8.19l-8,11.15,9.23,12.38h-8.38l-8.71-11.72v11.72h-7.11Z" transform="translate(-67.89 -30.39)"/><path class="cls-11" d="M706.47,256.33a20.51,20.51,0,0,0-18.64,11.23,18.91,18.91,0,0,0-13.71-5.62A23.75,23.75,0,0,0,654,273.21a19.76,19.76,0,0,0-3.55,11.33c0,.15,0,.28,0,.42s0,.46,0,.68V286h.06c0,36.51,39.74,52.85,39.74,52.85S730,323.91,730,286h.2v-5.5A23.81,23.81,0,0,0,706.47,256.33Zm-23.81,41.33H666.82v-10a8,8,0,0,1,8-8.31c4.38,0,7.86,3.48,7.86,8.31Zm31,0H697.82v-15.5a8,8,0,0,1,8-8.31c4.38,0,7.86,3.48,7.86,8.31Z" transform="translate(-67.89 -30.39)"/><ellipse class="cls-13" cx="622.41" cy="314.57" rx="26.39" ry="4.96"/></g></g></svg>